<?xml version="1.0" encoding="UTF-8"?>
<svg id="Calque_1" data-name="Calque 1" xmlns="http://www.w3.org/2000/svg" viewBox="0 0 305.86 808.19">
  <path d="m190.5,221.55c.31-3.67,5.24-4.63,6.89-1.34,3.9,7.82,9.63,11.91,15.44,19.33,4.91,6.27,2.18,7.37,7.72,7.37s26.37-7.83,26.11-40c-.26-32.17-2.81-45.41-6.99-62.64-4.18-17.23-1.04-38.11-2.35-44.38-1.31-6.27-3.92-8.88-3.39-12.79.52-3.92,2.35-16.97.78-19.58-1.57-2.61-6.53-4.96-7.83-3.65-1.31,1.31-.26,8.88-1.57,10.96s0,7.83-3.65,12.01c-2.15,2.45-4.21,6.35-5.54,9.15-.88,1.84-3.09,2.59-4.91,1.68l-3.5-1.75c-.26-.13-.51-.3-.73-.49-1.48-1.27-7.5-6.21-9.33-4.15-2.09,2.35.52,7.83,2.35,8.88,1.46.84,9.42,5.62,12.04,9.6,1.57,2.38,3.09,3.68,2.99,4.88-.59,7.25,0,11.68.02,11.79,1.9,10.8,5.39,1.01,5.4,30.69,0,8.52-.79,19.42-.86,25.29-.13,9.99,1.56,16.26-2.64,16.15-3.82-.1-5.32-19.73-6.35-23.12-1.97-6.5-1.55-7.76-4.77-16.68-3.48-9.66-8.01-16.47-17.55-20.74-3.72-1.67-8.31-3.59-15.22-1.84-5.21,1.33-10-1.25-15.18-3.05-.52-.18-2.31-.94-2.84-1.09l-2.45-.7c-2.26-.65-3.32-3.22-2.18-5.27l.96-1.74c.78-1.4,2.36-2.12,3.92-1.8,3.94.81,11.24,1.82,13.73-1.21,3.47-4.23,3.78-17.67,3.78-17.67,0,0-.52-3.05,1.66-3.32,2.93-.36.46-7.68.08-9.43-.06-.27-.08-.52-.08-.8.02-1.47.13-6.56.9-9.26.51-1.79,1.17-10.78-3.46-18.58,1.13-.11,2.15-.2,3.02-.28,1.93-.18,3.66,1.18,3.94,3.1.41,2.88,1.31,6.72,3.31,7.9,3.32,1.96,3.78,15.1,6.04,16.01s3.63-5.89,3.63-5.89c0,0,1.81-6.19.91-7.85-.91-1.66.6-8.61,1.36-8.76.76-.15,5.29.3,8.76-.91s3.47-4.53,7.85-5.14c4.38-.6,5.59-2.11,8.01-1.66,2.42.45,4.83-.15,4.83-.15,0,0,5.44-1.21,1.51-3.78s-24.17,2.42-24.17,2.42c0,0-1.53.59-5.14-3.47-2.83-3.18-3.8-3.04-4.78-2.84-.71.15-1.28.67-2.01.62-9.24-.67-63.14-4.39-82.18-.81-14.68,2.77-15.27,3.06-14.34,2.99-4.7.57-23.67,3.18-24.33,8.34-.76,5.89,10.55,52.36,10.84,56.38.83,11.26,2.48,22.2-1.33,27.33-13.75,18.53-1.82,29.48-1.82,29.48,2.26,6.43,8.5,11.1,10.75,12.44,2.9,1.71,4.56,18.68,14.99,33.74,4.39,6.35,1.67,9.32,3.97,16.29.3.9.21,1.84.26,2.78.17,3.88.39,12.81-1.04,15.44-8.84,16.27-16.76,46.81-9.46,71.4,2.4,8.06-14.06,28.47,10.87,84.63,4.2,9.47-10.64,25.53-9.69,35.46.95,9.93.95,33.1,15.37,51.77s19.5,45.6,18.91,56.03c-.54,9.58-7.09,18.2-13.24,19.39-6.15,1.18-7.09-1.18-11.11-1.18s-8.51,1.42-7.8,3.55c.71,2.13,3.55,4.96,6.86,4.96s7.8,2.13,15.13.95c7.33-1.18,19.86,3.55,19.86,1.18s3.55-3.31-.24-10.64c-3.45-6.69-2.18-18.49-1.93-20.51.03-.21.03-.4.02-.62-.19-3.53-1.9-35.55-3.53-53.82-1.18-13.24,1.67-36.58,2.13-47.75,1.92-47.03,13.81-86.2,16.79-92.91,2.2-4.97,6.87,19.34,7.77,30.6.02.25.01.49-.02.74-.39,3.07-3.15,24.38-4.68,29.42-1.65,5.44-13.48,28.37-8.04,54.61,5.44,26.24,11.94,87.13,5.91,99.18-5.5,11.01,6.79,11.95,8.95,12.04.2,0,.39,0,.59-.03l17.02-2.13c.8-.1,1.55-.47,2.13-1.04l3.26-3.26c.35-.35.77-.62,1.23-.81,1.27-.5,3.68-1.99-.63-5.07-5.54-3.95-8.96.26-16.35-9.49-5.85-7.73-2.59-37.01-.99-48.81.42-3.07,1.32-6.04,2.7-8.82,4.52-9.12,15.15-32.55,14.11-49.42-1.32-21.36-4.75-25.05-3.95-33.48.79-8.44,30.06-45.09,32.96-64.86,2.9-19.77-1.32-30.06.53-35.59,1.85-5.54,12.43-22.74-2.64-49.57-13.47-23.98-10.73-17.04-23.07-44.48-.25-.56-.37-1.2-.31-1.81l.35-4.25Zm-76.09-94.16c-.34-4.18-2.87-9.77-7.02-17.71-6.22-11.91-5.25-16.15-5.61-19.32-.37-3.23.04-8.68,0-8.9-.36-1.92-.59-6.3-3.46-8.94-1.07-.99,4.94-2.29,14.08-3.65-1.39,5.81-1.7,13.83,3.89,20.73,5.35,6.6,12.09,6.79,12.09,6.79,0,0,1.36,27.94-6.5,32.63-.75.44-1.42.84-2.03,1.2-2.31,1.35-5.24-.16-5.45-2.82Zm12.27,85.23c-7.85-12.41-4.48-53.55-4.48-53.55l4.26-.69s8.74,55.39,17.26,65.96c8.52,10.57,2.47,34.47,2.47,34.47,0,0-11.66-33.78-19.5-46.19Zm41.75,47.39c-10.31,4.14-25.78,14.94-28.47,34.47-2.69,19.53,5.16,45.73,10.98,47.57l5.83,1.84-8.74,2.99s-10.98-11.49-15.02-34.47c-4.04-22.98,5.83-31.03,6.95-32.86s12.78-16.32,15.02-16.78,25.33-13.1,25.33-13.1c0,0-1.57,6.21-11.88,10.34Z"/>
</svg>